<svg width="62" height="62" fill="none" xmlns="http://www.w3.org/2000/svg"><path opacity=".58" fill="#fff" d="M0 0h62v62H0z"/><path d="M55.387 10.05a1.136 1.136 0 1 1-2.272 0V3.634c0-.71-.577-1.286-1.286-1.286H3.633c-.71 0-1.286.577-1.286 1.286v54.735c0 .71.577 1.286 1.286 1.286h48.196c.709 0 1.286-.577 1.286-1.286v-3.39a1.136 1.136 0 1 1 2.272 0v3.39a3.562 3.562 0 0 1-3.558 3.558H3.633a3.562 3.562 0 0 1-3.558-3.558V3.633A3.562 3.562 0 0 1 3.633.075h48.196a3.562 3.562 0 0 1 3.558 3.558v6.418Z" fill="#CB8734" stroke="#fff" stroke-width=".15"/><path d="M8.234 8.16h-.075V32.332a1.136 1.136 0 1 1-2.272 0V7.023c0-.627.508-1.135 1.136-1.135h41.416c.627 0 1.136.508 1.136 1.136v3.148a1.136 1.136 0 1 1-2.272 0V8.159H8.234ZM47.228 53.841h.075v-1.528a1.136 1.136 0 1 1 2.272 0v2.664c0 .628-.509 1.136-1.136 1.136H7.023a1.136 1.136 0 0 1-1.136-1.136V41.475a1.136 1.136 0 1 1 2.272 0v12.366h39.069Z" fill="#CB8734" stroke="#fff" stroke-width=".15"/><path d="m33.37 45.234.052.053.053-.053 2.393-2.394a1.136 1.136 0 1 1 1.607 1.607l-2.403 2.403a2.327 2.327 0 0 1-1.65.682 2.326 2.326 0 0 1-1.65-.682l-1.488-1.488-.053-.053-.053.053-.959.959a1.136 1.136 0 0 1-1.606-1.607l.968-.968c.91-.91 2.39-.91 3.3 0l1.488 1.488ZM42.507 15.736a3.454 3.454 0 0 0-2.598 1.006 3.455 3.455 0 0 0-1.006 2.598c.02.458-.228.89-.635 1.1l-.035-.067.035.066a3.455 3.455 0 0 0-1.747 2.17l-.073-.019.073.02c-.12.446-.146.907-.084 1.357l.011.085H15.231a1.136 1.136 0 1 0 0 2.272h21.86l-.04.102c-.027.07-.06.14-.103.207m5.559-10.897L38.755 32.21c.053.139.08.288.072.441a3.53 3.53 0 0 0 1.028 2.655c.7.699 1.667 1.074 2.655 1.028m-.003-20.6a1.18 1.18 0 0 0 1.1-.634 3.456 3.456 0 0 1 2.17-1.747 3.455 3.455 0 0 1 2.753.428c.385.247.883.247 1.269 0a3.455 3.455 0 0 1 2.753-.428c.935.25 1.726.887 2.17 1.747.21.407.64.657 1.1.635a3.453 3.453 0 0 1 2.598 1.006 3.456 3.456 0 0 1 1.006 2.598c-.021.458.228.89.635 1.1a3.455 3.455 0 0 1 1.747 2.17c.25.935.095 1.938-.428 2.753a1.178 1.178 0 0 0 0 1.27c.523.814.678 1.818.428 2.753a3.455 3.455 0 0 1-1.747 2.17 1.18 1.18 0 0 0-.635 1.1 3.45 3.45 0 0 1-3.604 3.604 1.18 1.18 0 0 0-1.1.635c-.142.275-.32.527-.527.751l-.02.022V49.007a1.136 1.136 0 0 1-1.937.805l-3.02-3.005-.054-.053m-6.657-31.018 6.657 31.018M36.948 26.633l-.063-.04.063.04Zm0 0a3.456 3.456 0 0 0-.427 2.753c.034.128.076.253.125.376l.04.102H15.232a1.136 1.136 0 1 0 0 2.272h23.576l.018.049c.056.147.085.307.077.47a3.452 3.452 0 0 0 3.604 3.604m0 0 .004.076m-.004-.075c.458-.023.89.228 1.1.635.142.275.32.527.527.751l.02.022V49.007c0 .459.276.873.7 1.049l-.029.069M42.506 36.26l.004.075m0 0 2.314 13.79m0 0 .03-.07c.423.177.91.08 1.236-.243l3.021-3.005.053-.053m-4.34 3.37 4.34-3.37m2.611-.607.128.127V38.75l-.078.003h-.007a3.455 3.455 0 0 1-2.02-.54 1.179 1.179 0 0 0-1.268 0 3.456 3.456 0 0 1-2.026.541l-.079-.003v7.523l.128-.127 1.81-1.8c.443-.441 1.16-.441 1.602 0l1.81 1.8Zm.17-9.772.019.072c.323-.086.587-.298.74-.596a3.457 3.457 0 0 1 3.223-1.86c.335.015.65-.107.886-.344l-.053-.053.054.053c.236-.236.358-.551.343-.886a3.457 3.457 0 0 1 1.86-3.223c.298-.154.51-.417.596-.74a1.163 1.163 0 0 0-.145-.94 3.457 3.457 0 0 1 0-3.721c.18-.282.232-.616.145-.939a1.163 1.163 0 0 0-.595-.74l-.035.066.035-.066a3.457 3.457 0 0 1-1.861-3.223 1.164 1.164 0 0 0-.343-.887 1.164 1.164 0 0 0-.886-.343 3.457 3.457 0 0 1-3.224-1.86l-.066.034.066-.035a1.164 1.164 0 0 0-.74-.595 1.164 1.164 0 0 0-.94.145l.041.063-.04-.063a3.457 3.457 0 0 1-3.722 0 1.164 1.164 0 0 0-.939-.146l.02.073-.02-.072a1.164 1.164 0 0 0-.74.595 3.456 3.456 0 0 1-3.223 1.861 1.165 1.165 0 0 0-.886.343 1.163 1.163 0 0 0-.343.887 3.458 3.458 0 0 1-1.861 3.223c-.297.153-.51.417-.596.74l.072.02-.072-.02c-.087.323-.035.657.146.94a3.457 3.457 0 0 1 0 3.72c-.181.282-.233.616-.146.94.086.323.298.586.596.74.325.168.615.386.865.64l.002.002.055.056v.001c.63.67.982 1.578.938 2.524-.015.334.107.65.344.886.236.237.552.359.886.344a3.456 3.456 0 0 1 3.223 1.86c.154.298.417.51.74.596l.02-.072-.02.072c.323.087.658.035.94-.146l-.041-.063.04.063a3.447 3.447 0 0 1 1.861-.543c.648 0 1.296.181 1.861.543.282.181.616.233.939.146l-.02-.072Z" fill="#CB8734" stroke="#fff" stroke-width=".15"/><path d="m49.138 26.776.053.053.053-.053 4.02-4.02a1.136 1.136 0 1 1 1.606 1.607l-4.876 4.876a1.132 1.132 0 0 1-1.606 0l-2.456-2.456a1.136 1.136 0 0 1 1.606-1.607l1.6 1.6ZM22.828 35.677h13.844a1.136 1.136 0 1 1 0 2.272H22.828a1.136 1.136 0 1 1 0-2.272Z" fill="#CB8734" stroke="#fff" stroke-width=".15"/></svg>