<svg width="12" height="13" fill="none" xmlns="http://www.w3.org/2000/svg"><path d="M10.646 1.234C10.332.946 9.06.022 6.23.009c0 0-3.338-.202-4.965 1.29C.359 2.207.04 3.53.007 5.175-.026 6.816-.069 9.896 2.9 10.731h.002L2.9 12.004s-.018.516.321.62c.41.127.653-.266 1.045-.688.215-.233.511-.572.737-.833 2.029.17 3.59-.22 3.767-.278.41-.134 2.731-.43 3.108-3.51.39-3.168-.19-5.175-1.232-6.081Zm.344 5.858c-.32 2.571-2.2 2.733-2.546 2.845-.147.048-1.518.39-3.244.275 0 0-1.286 1.552-1.685 1.954-.064.063-.137.088-.185.076-.069-.018-.089-.099-.086-.218l.01-2.118c-.003 0-.003 0 0 0C.74 9.21.888 6.59.916 5.217c.028-1.371.286-2.498 1.052-3.254C3.342.718 6.18.903 6.18.903c2.394.01 3.54.73 3.806.971.883.76 1.334 2.569 1.005 5.218Z" fill="#fff"/><path d="M7.397 5.265a.16.16 0 0 1-.16-.152c-.028-.544-.283-.81-.805-.837a.161.161 0 0 1 .018-.322c.688.038 1.073.433 1.108 1.142a.157.157 0 0 1-.151.167l-.01.002Z" fill="#fff"/><path d="M8.216 5.539h-.002a.16.16 0 0 1-.157-.165c.012-.547-.144-.99-.478-1.354-.332-.364-.79-.562-1.395-.605a.16.16 0 0 1-.147-.172.16.16 0 0 1 .173-.146c.683.05 1.222.288 1.606.708.388.423.575.952.562 1.577a.162.162 0 0 1-.162.157Z" fill="#fff"/><path d="M9.057 5.867a.159.159 0 0 1-.16-.159c-.008-.98-.288-1.726-.86-2.285-.565-.552-1.28-.833-2.123-.84a.16.16 0 0 1 0-.322c.928.008 1.718.32 2.343.932.627.612.949 1.457.959 2.51a.158.158 0 0 1-.16.164c.003 0 .003 0 0 0ZM6.47 7.247s.226.02.347-.13l.235-.296c.114-.146.39-.24.658-.09.15.083.42.25.587.374.18.131.544.435.547.438.175.146.215.361.096.592v.005a2.468 2.468 0 0 1-.49.605l-.006.002c-.17.142-.336.223-.498.24-.02.006-.043.006-.074.006a.69.69 0 0 1-.212-.033l-.005-.008c-.253-.07-.674-.248-1.372-.635a8.144 8.144 0 0 1-1.154-.762 5.91 5.91 0 0 1-.519-.46l-.017-.018-.018-.018-.018-.017-.017-.018a6.354 6.354 0 0 1-.461-.519 8.001 8.001 0 0 1-.762-1.154c-.387-.7-.564-1.12-.635-1.371l-.007-.005a.69.69 0 0 1-.033-.213c0-.03 0-.053.005-.073.02-.165.1-.33.24-.499 0-.002.003-.002.003-.005.187-.207.39-.37.604-.49H3.5c.228-.12.443-.08.593.095 0 0 .306.367.437.547.124.17.291.438.375.587.15.268.056.544-.091.658l-.296.235c-.15.122-.13.347-.13.347s.438 1.665 2.083 2.083Z" fill="#fff"/></svg>