<svg width="13" height="13" fill="none" xmlns="http://www.w3.org/2000/svg"><path d="M10.7 2.318A6.136 6.136 0 0 0 6.323.5C2.859.5.076 3.295.11 6.696c0 1.077.305 2.12.814 3.064l-.882 3.198 3.293-.841c.916.505 1.934.74 2.953.74 3.428 0 6.212-2.794 6.212-6.195 0-1.65-.645-3.199-1.8-4.344Zm-4.378 9.495a5.075 5.075 0 0 1-2.614-.707l-.204-.1-1.969.505.51-1.92-.136-.202C.415 7 1.128 3.833 3.572 2.352c2.444-1.482 5.601-.775 7.095 1.65 1.494 2.424.78 5.556-1.663 7.037a4.98 4.98 0 0 1-2.682.774Zm2.987-3.737-.373-.168s-.543-.236-.883-.404c-.034 0-.068-.034-.102-.034a.494.494 0 0 0-.237.067s-.034.034-.51.573a.187.187 0 0 1-.17.1h-.033a.258.258 0 0 1-.136-.067l-.17-.067c-.373-.168-.713-.37-.984-.64-.068-.067-.17-.134-.238-.202a3.766 3.766 0 0 1-.645-.808l-.034-.067c-.034-.034-.034-.068-.068-.135 0-.067 0-.135.034-.168 0 0 .136-.169.238-.27.068-.067.102-.168.17-.235.068-.101.101-.236.068-.337-.034-.168-.442-1.078-.544-1.28a.393.393 0 0 0-.237-.168H4.08c-.068 0-.135.034-.203.034l-.034.033c-.068.034-.136.101-.204.135-.068.067-.102.135-.17.202a1.708 1.708 0 0 0-.373 1.044c0 .27.068.539.17.774l.034.101c.305.64.712 1.213 1.256 1.718l.135.134c.102.101.204.169.272.27a6.082 6.082 0 0 0 2.444 1.28c.102.033.238.033.34.067h.339c.17 0 .373-.068.51-.135.101-.067.169-.067.237-.135l.068-.067c.068-.068.136-.101.203-.169a.894.894 0 0 0 .17-.202c.068-.134.102-.303.136-.471v-.236s-.034-.033-.102-.067Z" fill="#fff"/></svg>